<svg xmlns="http://www.w3.org/2000/svg" xmlns:svg="http://www.w3.org/2000/svg" id="svg8" width="420.99" height="280.101" version="1.1" viewBox="0 0 111.387 74.11"><defs id="defs2"><filter id="filter925" color-interpolation-filters="sRGB"><feFlood id="feFlood915" flood-color="#000" flood-opacity="1" result="flood"/><feComposite id="feComposite917" in="flood" in2="SourceGraphic" operator="in" result="composite1"/><feGaussianBlur id="feGaussianBlur919" in="composite1" result="blur" stdDeviation=".6"/><feOffset id="feOffset921" dx="0" dy="0" result="offset"/><feComposite id="feComposite923" in="SourceGraphic" in2="offset" operator="over" result="composite2"/></filter><filter id="filter937" color-interpolation-filters="sRGB"><feFlood id="feFlood927" flood-color="#000" flood-opacity="1" result="flood"/><feComposite id="feComposite929" in="flood" in2="SourceGraphic" operator="in" result="composite1"/><feGaussianBlur id="feGaussianBlur931" in="composite1" result="blur" stdDeviation=".6"/><feOffset id="feOffset933" dx="0" dy="0" result="offset"/><feComposite id="feComposite935" in="SourceGraphic" in2="offset" operator="over" result="composite2"/></filter></defs><metadata id="metadata5"/><g id="layer1" transform="translate(-12.900108,-5.869898)"><rect id="rect917" width="111.387" height="74.11" x="12.9" y="5.87" fill="#fff" fill-opacity="1" stroke="none" stroke-dasharray="none" stroke-linecap="round" stroke-linejoin="miter" stroke-miterlimit="4" stroke-opacity="1" stroke-width="3.065" paint-order="markers stroke fill"/><g id="g915" transform="translate(1.8232531,1.0702386)"><g id="g852" filter="url(#filter937)"><rect id="rect817" width="56.35" height="39.843" x="15.374" y="9.097" fill="#fff" fill-opacity="1" stroke="#3c3c3c" stroke-dasharray="none" stroke-linejoin="miter" stroke-miterlimit="4" stroke-opacity="1" stroke-width=".265" paint-order="markers stroke fill"/><g id="g840" transform="translate(-7.2287259,5.3400462e-5)"><path id="rect830" fill="#202020" fill-opacity="1" stroke="none" stroke-dasharray="none" stroke-linejoin="miter" stroke-miterlimit="4" stroke-opacity="1" stroke-width="2.249" d="m 138.93164,39.320312 c -2.30324,0 -4.1582,1.853006 -4.1582,4.15625 V 175.87695 c 0,2.30325 1.85496,4.15821 4.1582,4.15821 h 105.9707 c 2.30325,0 4.15821,-1.85496 4.15821,-4.15821 V 43.476562 c 0,-2.303244 -1.85496,-4.15625 -4.15821,-4.15625 z M 191.875,93.867188 a 3.3883672,3.3883672 0 0 1 2.19141,0.771484 l 6.32031,5.201172 v -5.126953 a 0.84709179,0.84709179 0 0 1 0.84766,-0.845703 h 3.95312 a 0.84709179,0.84709179 0 0 1 0.84766,0.845703 v 9.777339 l 5.90039,4.86524 a 0.84709179,0.84709179 0 0 1 0.12109,1.19531 l -1.80078,2.1875 a 0.84709179,0.84709179 0 0 1 -1.19336,0.11328 L 192.45703,99.175781 a 0.86050409,0.86050409 0 0 0 -1.08008,0 l -16.60351,13.675779 a 0.84709179,0.84709179 0 0 1 -1.19336,-0.11523 l -1.80078,-2.1875 a 0.84709179,0.84709179 0 0 1 0.11328,-1.19336 l 17.86914,-14.716798 a 3.3883672,3.3883672 0 0 1 2.11328,-0.771484 z m 0.0234,8.011722 a 0.86050409,0.86050409 0 0 1 0.55859,0.1914 l 13.01172,10.71094 v 11.57617 a 1.1294557,1.1294557 0 0 1 -1.12891,1.13086 l -7.9082,-0.0234 a 1.1294557,1.1294557 0 0 1 -1.12891,-1.13281 v -6.75 a 1.1294557,1.1294557 0 0 0 -1.1289,-1.13086 h -4.51758 a 1.1294557,1.1294557 0 0 0 -1.12891,1.13086 v 6.75586 a 1.1294557,1.1294557 0 0 1 -1.125,1.12891 l -7.91015,0.0215 a 1.1294557,1.1294557 0 0 1 -1.12891,-1.13086 v -11.56836 l 13.01367,-10.71875 a 0.86050409,0.86050409 0 0 1 0.52149,-0.1914 z" paint-order="markers stroke fill" transform="scale(0.26458333)"/><rect id="rect832" width="9.458" height="4.63" x="25.672" y="10.403" fill="#202020" fill-opacity="1" stroke="none" stroke-dasharray="none" stroke-linejoin="miter" stroke-miterlimit="4" stroke-opacity="1" stroke-width=".595" paint-order="markers stroke fill" rx="1.1" ry="1.1"/><rect id="rect834" width="9.458" height="5.96" x="66.426" y="10.403" fill="#202020" fill-opacity="1" stroke="none" stroke-dasharray="none" stroke-linejoin="miter" stroke-miterlimit="4" stroke-opacity="1" stroke-width=".595" paint-order="markers stroke fill" rx="1.1" ry="1.1"/><rect id="rect836" width="9.458" height="12.284" x="25.672" y="15.563" fill="#202020" fill-opacity="1" stroke="none" stroke-dasharray="none" stroke-linejoin="miter" stroke-miterlimit="4" stroke-opacity="1" stroke-width=".595" paint-order="markers stroke fill" rx="1.1" ry="1.1"/><rect id="rect840" width="9.458" height="9.369" x="25.672" y="28.376" fill="#202020" fill-opacity="1" stroke="none" stroke-dasharray="none" stroke-linejoin="miter" stroke-miterlimit="4" stroke-opacity="1" stroke-width=".595" paint-order="markers stroke fill" rx="1.1" ry="1.1"/><rect id="rect842" width="9.458" height="9.36" x="25.672" y="38.274" fill="#202020" fill-opacity="1" stroke="none" stroke-dasharray="none" stroke-linejoin="miter" stroke-miterlimit="4" stroke-opacity="1" stroke-width=".595" paint-order="markers stroke fill" rx="1.1" ry="1.1"/><rect id="rect844" width="9.458" height="16.354" x="66.426" y="16.893" fill="#202020" fill-opacity="1" stroke="none" stroke-dasharray="none" stroke-linejoin="miter" stroke-miterlimit="4" stroke-opacity="1" stroke-width=".595" paint-order="markers stroke fill" rx="1.1" ry="1.1"/><rect id="rect846" width="9.458" height="13.858" x="66.426" y="33.776" fill="#202020" fill-opacity="1" stroke="none" stroke-dasharray="none" stroke-linejoin="miter" stroke-miterlimit="4" stroke-opacity="1" stroke-width=".595" paint-order="markers stroke fill" rx="1.1" ry="1.1"/></g></g><g id="g887" filter="url(#filter925)"><g id="g865" stroke-dasharray="none" stroke-miterlimit="4" stroke-width=".265" transform="translate(-45.256414,25.671447)"><rect id="rect850" width="70.807" height="39.843" x="92.615" y="9.097" fill="#fff" fill-opacity="1" stroke="#3c3c3c" stroke-dasharray="none" stroke-linejoin="miter" stroke-miterlimit="4" stroke-opacity="1" stroke-width=".265" paint-order="markers stroke fill"/><g id="g885" stroke-dasharray="none" stroke-miterlimit="4" stroke-width=".265" transform="translate(1.574656,1.8167496e-4)"><rect id="rect854" width="9.458" height="4.63" x="98.15" y="10.403" fill="#202020" fill-opacity="1" stroke="none" stroke-dasharray="none" stroke-linejoin="miter" stroke-miterlimit="4" stroke-opacity="1" stroke-width=".265" paint-order="markers stroke fill" rx="1.1" ry="1.1"/><rect id="rect856" width="11.253" height="37.231" x="108.137" y="10.403" fill="#202020" fill-opacity="1" stroke="none" stroke-dasharray="none" stroke-linejoin="miter" stroke-miterlimit="4" stroke-opacity="1" stroke-width=".265" paint-order="markers stroke fill" rx="1.1" ry="1.1"/><rect id="rect858" width="9.458" height="12.284" x="98.15" y="15.563" fill="#202020" fill-opacity="1" stroke="none" stroke-dasharray="none" stroke-linejoin="miter" stroke-miterlimit="4" stroke-opacity="1" stroke-width=".265" paint-order="markers stroke fill" rx="1.1" ry="1.1"/><rect id="rect860" width="9.458" height="9.369" x="98.15" y="28.376" fill="#202020" fill-opacity="1" stroke="none" stroke-dasharray="none" stroke-linejoin="miter" stroke-miterlimit="4" stroke-opacity="1" stroke-width=".265" paint-order="markers stroke fill" rx="1.1" ry="1.1"/><rect id="rect862" width="9.458" height="9.36" x="98.15" y="38.274" fill="#202020" fill-opacity="1" stroke="none" stroke-dasharray="none" stroke-linejoin="miter" stroke-miterlimit="4" stroke-opacity="1" stroke-width=".265" paint-order="markers stroke fill" rx="1.1" ry="1.1"/><rect id="rect868" width="11.253" height="37.231" x="119.92" y="10.403" fill="#202020" fill-opacity="1" stroke="none" stroke-dasharray="none" stroke-linejoin="miter" stroke-miterlimit="4" stroke-opacity="1" stroke-width=".265" paint-order="markers stroke fill" rx="1.1" ry="1.1"/><rect id="rect870" width="11.253" height="37.231" x="131.702" y="10.403" fill="#202020" fill-opacity="1" stroke="none" stroke-dasharray="none" stroke-linejoin="miter" stroke-miterlimit="4" stroke-opacity="1" stroke-width=".265" paint-order="markers stroke fill" rx="1.1" ry="1.1"/><rect id="rect872" width="11.253" height="18.35" x="143.485" y="29.284" fill="#202020" fill-opacity="1" stroke="none" stroke-dasharray="none" stroke-linejoin="miter" stroke-miterlimit="4" stroke-opacity="1" stroke-width=".265" paint-order="markers stroke fill" rx="1.1" ry="1.1"/><rect id="rect874" width="11.253" height="18.35" x="143.485" y="10.403" fill="#202020" fill-opacity="1" stroke="none" stroke-dasharray="none" stroke-linejoin="miter" stroke-miterlimit="4" stroke-opacity="1" stroke-width=".265" paint-order="markers stroke fill" rx="1.1" ry="1.1"/></g></g><path id="path852" fill="#202020" fill-opacity="1" stroke="#fff" stroke-dasharray="none" stroke-miterlimit="4" stroke-opacity="1" stroke-width="11.584" d="M 298.86133 172.69336 L 298.86133 204.08008 L 305.19727 204.08008 L 305.19727 192.72852 L 313.00195 204.08008 L 320.33984 204.08008 L 311.82031 192.06055 L 320.16016 181.02344 L 312.89453 181.02344 L 305.19727 191.39258 L 305.19727 172.69336 L 298.86133 172.69336 z M 221.53516 173.4668 L 221.53516 204.08008 L 231.98828 204.08008 C 236.85687 204.08008 240.74855 202.66333 243.66016 199.82812 C 246.57176 196.96949 248.02734 193.12571 248.02734 188.29883 C 248.02734 184.05774 246.53594 180.53248 243.55273 177.7207 C 240.56953 174.8855 236.73821 173.4668 232.06055 173.4668 L 221.53516 173.4668 z M 228.37305 178.91602 L 231.8457 178.91602 C 234.80504 178.91602 237.10913 179.7817 238.75586 181.51562 C 240.40259 183.24955 241.22461 185.62773 241.22461 188.65039 C 241.22461 191.64962 240.41388 194.0747 238.79102 195.92578 C 237.19202 197.75343 234.88793 198.66797 231.88086 198.66797 L 228.37305 198.66797 L 228.37305 178.91602 z M 288.51562 180.67188 C 284.67326 180.67187 281.63009 181.82091 279.38672 184.11719 C 277.16722 186.39004 276.05664 189.23721 276.05664 192.6582 C 276.05664 196.0792 277.1898 198.90292 279.45703 201.12891 C 281.72427 203.33146 284.62414 204.43164 288.15625 204.43164 C 290.68601 204.43164 292.82226 203.95092 294.56445 202.99023 L 294.56445 197.75391 C 292.91772 198.80832 291.0926 199.33594 289.08789 199.33594 C 287.10705 199.33594 285.5327 198.73797 284.36328 197.54297 C 283.21773 196.34796 282.58418 194.70845 282.46484 192.62305 C 282.48871 190.49078 283.10902 188.82586 284.32617 187.63086 C 285.56718 186.43586 287.17931 185.83984 289.16016 185.83984 C 291.141 185.83984 292.94159 186.34401 294.56445 187.35156 L 294.56445 181.97266 C 292.94159 181.10569 290.92605 180.67187 288.51562 180.67188 z M 262.27539 180.8125 C 259.19672 180.8125 256.63057 181.85601 254.57812 183.94141 C 252.52568 186.00337 251.5 188.81537 251.5 192.37695 C 251.5 195.93854 252.5728 198.82088 254.7207 201.02344 C 256.86861 203.20256 259.85142 204.29102 263.66992 204.29102 C 266.93952 204.29102 269.35108 203.78685 270.90234 202.7793 L 270.90234 197.47266 C 269.18402 198.76138 267.10812 199.40625 264.67383 199.40625 C 262.83617 199.40625 261.32024 198.98416 260.12695 198.14062 C 258.93367 197.27366 258.14552 196.10313 257.76367 194.62695 L 272.04688 194.62695 C 272.23779 193.50224 272.33398 192.35321 272.33398 191.18164 C 272.33398 187.85437 271.42707 185.30032 269.61328 183.51953 C 267.79949 181.71531 265.35406 180.8125 262.27539 180.8125 z M 262.49023 185.59375 C 264.87678 185.59375 266.17582 187.03394 266.39062 189.91602 L 266.39062 190.16211 L 257.76367 190.16211 C 258.07392 188.73279 258.64713 187.62089 259.48242 186.82422 C 260.34159 186.00412 261.34468 185.59375 262.49023 185.59375 z" font-family="GenEi Nu Gothic EB" font-size="9.61" font-stretch="normal" font-style="normal" font-variant="normal" font-weight="normal" letter-spacing="0" paint-order="markers stroke fill" text-anchor="middle" transform="matrix(0.26458333,0,0,0.26458333,11.076855,4.7996594)" word-spacing="0" style="line-height:1.25;-inkscape-font-specification:'GenEi Nu Gothic EB';text-align:center"/></g></g></g></svg>