<svg xmlns="http://www.w3.org/2000/svg" xmlns:svg="http://www.w3.org/2000/svg" id="svg8" width="600" height="600" version="1.1" viewBox="0 0 158.75 158.75"><defs id="defs2"><filter id="filter4771" color-interpolation-filters="sRGB"><feFlood id="feFlood4773" flood-color="#000" flood-opacity="1" result="flood"/><feComposite id="feComposite4775" in="flood" in2="SourceGraphic" operator="in" result="composite1"/><feGaussianBlur id="feGaussianBlur4777" in="composite1" result="blur" stdDeviation="5"/><feOffset id="feOffset4779" dx="0" dy="0" result="offset"/><feComposite id="feComposite4781" in="SourceGraphic" in2="offset" operator="over" result="composite2"/></filter><filter id="filter4758" color-interpolation-filters="sRGB"><feFlood id="feFlood4760" flood-color="#000" flood-opacity="1" result="flood"/><feComposite id="feComposite4762" in="flood" in2="SourceGraphic" operator="in" result="composite1"/><feGaussianBlur id="feGaussianBlur4764" in="composite1" result="blur" stdDeviation="5"/><feOffset id="feOffset4766" dx="0" dy="0" result="offset"/><feComposite id="feComposite4768" in="SourceGraphic" in2="offset" operator="over" result="composite2"/></filter><filter id="filter4746" color-interpolation-filters="sRGB"><feFlood id="feFlood4748" flood-color="#000" flood-opacity="1" result="flood"/><feComposite id="feComposite4750" in="flood" in2="SourceGraphic" operator="in" result="composite1"/><feGaussianBlur id="feGaussianBlur4752" in="composite1" result="blur" stdDeviation="5"/><feOffset id="feOffset4754" dx="0" dy="0" result="offset"/><feComposite id="feComposite4756" in="SourceGraphic" in2="offset" operator="over" result="composite2"/></filter><filter id="filter4734" color-interpolation-filters="sRGB"><feFlood id="feFlood4736" flood-color="#000" flood-opacity="1" result="flood"/><feComposite id="feComposite4738" in="flood" in2="SourceGraphic" operator="in" result="composite1"/><feGaussianBlur id="feGaussianBlur4740" in="composite1" result="blur" stdDeviation="5"/><feOffset id="feOffset4742" dx="0" dy="0" result="offset"/><feComposite id="feComposite4744" in="SourceGraphic" in2="offset" operator="over" result="composite2"/></filter><filter id="filter4207" color-interpolation-filters="sRGB"><feFlood id="feFlood4209" flood-color="#000" flood-opacity="1" result="flood"/><feComposite id="feComposite4211" in="flood" in2="SourceGraphic" operator="in" result="composite1"/><feGaussianBlur id="feGaussianBlur4213" in="composite1" result="blur" stdDeviation="5"/><feOffset id="feOffset4215" dx="0" dy="0" result="offset"/><feComposite id="feComposite4217" in="SourceGraphic" in2="offset" operator="over" result="composite2"/></filter></defs><metadata id="metadata5"/><g id="layer1" transform="translate(0,-138.24998)"><g id="layer1-0" transform="translate(-191.29778,51.863968)"><rect id="rect4564" width="158.75" height="158.75" x="191.298" y="86.386" fill="#fff" fill-opacity="1" fill-rule="nonzero" stroke="none" stroke-dasharray="none" stroke-dashoffset="0" stroke-linecap="round" stroke-linejoin="round" stroke-miterlimit="4" stroke-opacity="1" stroke-width="3.704" opacity="1" paint-order="fill markers stroke"/><g id="g5125" fill="#2fa1bb" fill-opacity="1" stroke-width="1.001" transform="matrix(1.0954843,0,0,1.0954843,180.90583,-67.732381)"><g font-family="OTADESIGN Rounded" style="line-height:476.69509888px;-inkscape-font-specification:'OTADESIGN Rounded'" id="text4489" fill="#2fa1bb" fill-opacity="1" stroke="none" stroke-linecap="butt" stroke-linejoin="miter" stroke-opacity="1" stroke-width=".29" aria-label="Mi" font-size="141.034" font-stretch="normal" font-style="normal" font-variant="normal" font-weight="normal" letter-spacing="0" transform="matrix(0.91391326,0,0,0.91391326,-2.6894693,26.792807)" word-spacing="0"><path id="path5210" fill="#2fa1bb" fill-opacity="1" stroke-width=".29" d="m 75.196381,231.17126 c -5.855419,0.0202 -10.885068,-3.50766 -13.2572,-7.61584 -1.266603,-1.79454 -3.772419,-2.43291 -3.807919,0 v 11.2332 c 0,4.51309 -1.645397,8.41504 -4.936191,11.70583 -3.196772,3.19677 -7.098714,4.79516 -11.705826,4.79516 -4.513089,0 -8.415031,-1.59839 -11.705825,-4.79516 -3.196772,-3.29079 -4.795158,-7.19274 -4.795158,-11.70583 v -61.7729 c 0,-3.47884 0.987238,-6.6286 2.961715,-9.44928 2.068499,-2.91471 4.701135,-4.9362 7.897906,-6.06447 1.786431,-0.65816 3.666885,-0.98724 5.641362,-0.98724 5.077225,0 9.308247,1.97448 12.693064,5.92343 1.786431,1.97448 2.820681,3.00873 3.102749,3.10275 0,0 13.408119,16.21319 13.78421,16.49526 0.376091,0.28206 1.480789,2.43848 4.127113,2.43848 2.646324,0 3.89218,-2.15642 4.26827,-2.43848 0.376091,-0.28207 13.784088,-16.49526 13.784088,-16.49526 0.09402,0.094 1.081261,-0.94022 2.961715,-3.10275 3.478837,-3.94895 7.756866,-5.92343 12.834096,-5.92343 1.88045,0 3.76091,0.32908 5.64136,0.98724 3.19677,1.12827 5.7824,3.14976 7.75688,6.06447 2.06849,2.82068 3.10274,5.97044 3.10274,9.44928 v 61.7729 c 0,4.51309 -1.6454,8.41504 -4.93619,11.70583 -3.19677,3.19677 -7.09871,4.79516 -11.70582,4.79516 -4.51309,0 -8.41504,-1.59839 -11.705828,-4.79516 -3.196772,-3.29079 -4.795158,-7.19274 -4.795158,-11.70583 v -11.2332 c -0.277898,-3.06563 -2.987588,-1.13379 -3.948953,0 -2.538613,4.70114 -7.401781,7.59567 -13.2572,7.61584 z" font-family="OTADESIGN Rounded" font-stretch="normal" font-style="normal" font-variant="normal" font-weight="normal" style="-inkscape-font-specification:'OTADESIGN Rounded'"/><path id="path5212" fill="#2fa1bb" fill-opacity="1" stroke-width=".29" d="m 145.83461,185.00361 q -5.92343,0 -10.15445,-4.08999 -4.08999,-4.23102 -4.08999,-10.15445 0,-5.92343 4.08999,-10.01342 4.23102,-4.23102 10.15445,-4.23102 5.92343,0 10.15445,4.23102 4.23102,4.08999 4.23102,10.01342 0,5.92343 -4.23102,10.15445 -4.23102,4.08999 -10.15445,4.08999 z m 0.14103,2.82068 q 5.92343,0 10.01342,4.23102 4.23102,4.23102 4.23102,10.15445 v 34.83541 q 0,5.92343 -4.23102,10.15445 -4.08999,4.08999 -10.01342,4.08999 -5.92343,0 -10.15445,-4.08999 -4.23102,-4.23102 -4.23102,-10.15445 v -34.83541 q 0,-5.92343 4.23102,-10.15445 4.23102,-4.23102 10.15445,-4.23102 z" font-family="OTADESIGN Rounded" font-stretch="normal" font-style="normal" font-variant="normal" font-weight="normal" style="-inkscape-font-specification:'OTADESIGN Rounded'"/></g></g><path id="rect4566" fill="#f66e4f" fill-opacity="1" fill-rule="nonzero" stroke="none" stroke-dasharray="none" stroke-dashoffset="0" stroke-linecap="round" stroke-linejoin="round" stroke-miterlimit="4" stroke-opacity="1" stroke-width="3.704" d="m 294.39029,181.62701 c -0.0142,8.2e-4 -0.0253,0.004 -0.0337,0.009 -0.31761,0.18338 -0.53794,5.78472 -0.66227,13.4927 h -5.55913 v 33.37062 h 5.56036 c 0.12492,7.70802 0.34561,13.30958 0.66324,13.49294 1.04542,0.60352 52.26909,-28.97293 52.26905,-30.18005 -4e-5,-1.1977 -50.42858,-30.31947 -52.23761,-30.18485 z" opacity="1" paint-order="fill markers stroke"/></g></g></svg>