<svg xmlns="http://www.w3.org/2000/svg" xmlns:svg="http://www.w3.org/2000/svg" id="svg8" width="420.99" height="280.101" version="1.1" viewBox="0 0 111.387 74.11"><metadata id="metadata5"/><g id="layer1" transform="translate(-12.900108,-5.869898)"><rect id="rect917" width="111.387" height="74.11" x="12.9" y="5.87" fill="#fff" fill-opacity="1" stroke="none" stroke-dasharray="none" stroke-linecap="round" stroke-linejoin="miter" stroke-miterlimit="4" stroke-opacity="1" stroke-width="3.065" paint-order="markers stroke fill"/><g id="g915" transform="translate(1.8232531,1.0702386)"><g id="g852"><rect id="rect817" width="56.35" height="39.843" x="15.374" y="9.097" fill="#fff" fill-opacity="1" stroke="#3c3c3c" stroke-dasharray="none" stroke-linejoin="miter" stroke-miterlimit="4" stroke-opacity="1" stroke-width=".595" paint-order="markers stroke fill"/><g id="g840" transform="translate(-7.2287259,5.3400462e-5)"><path id="rect830" fill="#202020" fill-opacity="1" stroke="none" stroke-dasharray="none" stroke-linejoin="miter" stroke-miterlimit="4" stroke-opacity="1" stroke-width="2.249" d="m 138.93164,39.320312 c -2.30324,0 -4.1582,1.853006 -4.1582,4.15625 V 175.87695 c 0,2.30325 1.85496,4.15821 4.1582,4.15821 h 105.9707 c 2.30325,0 4.15821,-1.85496 4.15821,-4.15821 V 43.476562 c 0,-2.303244 -1.85496,-4.15625 -4.15821,-4.15625 z M 191.875,93.867188 a 3.3883672,3.3883672 0 0 1 2.19141,0.771484 l 6.32031,5.201172 v -5.126953 a 0.84709179,0.84709179 0 0 1 0.84766,-0.845703 h 3.95312 a 0.84709179,0.84709179 0 0 1 0.84766,0.845703 v 9.777339 l 5.90039,4.86524 a 0.84709179,0.84709179 0 0 1 0.12109,1.19531 l -1.80078,2.1875 a 0.84709179,0.84709179 0 0 1 -1.19336,0.11328 L 192.45703,99.175781 a 0.86050409,0.86050409 0 0 0 -1.08008,0 l -16.60351,13.675779 a 0.84709179,0.84709179 0 0 1 -1.19336,-0.11523 l -1.80078,-2.1875 a 0.84709179,0.84709179 0 0 1 0.11328,-1.19336 l 17.86914,-14.716798 a 3.3883672,3.3883672 0 0 1 2.11328,-0.771484 z m 0.0234,8.011722 a 0.86050409,0.86050409 0 0 1 0.55859,0.1914 l 13.01172,10.71094 v 11.57617 a 1.1294557,1.1294557 0 0 1 -1.12891,1.13086 l -7.9082,-0.0234 a 1.1294557,1.1294557 0 0 1 -1.12891,-1.13281 v -6.75 a 1.1294557,1.1294557 0 0 0 -1.1289,-1.13086 h -4.51758 a 1.1294557,1.1294557 0 0 0 -1.12891,1.13086 v 6.75586 a 1.1294557,1.1294557 0 0 1 -1.125,1.12891 l -7.91015,0.0215 a 1.1294557,1.1294557 0 0 1 -1.12891,-1.13086 v -11.56836 l 13.01367,-10.71875 a 0.86050409,0.86050409 0 0 1 0.52149,-0.1914 z" paint-order="markers stroke fill" transform="scale(0.26458333)"/><rect id="rect832" width="9.458" height="4.63" x="25.672" y="10.403" fill="#202020" fill-opacity="1" stroke="none" stroke-dasharray="none" stroke-linejoin="miter" stroke-miterlimit="4" stroke-opacity="1" stroke-width=".595" paint-order="markers stroke fill" rx="1.1" ry="1.1"/><rect id="rect834" width="9.458" height="5.96" x="66.426" y="10.403" fill="#202020" fill-opacity="1" stroke="none" stroke-dasharray="none" stroke-linejoin="miter" stroke-miterlimit="4" stroke-opacity="1" stroke-width=".595" paint-order="markers stroke fill" rx="1.1" ry="1.1"/><rect id="rect836" width="9.458" height="12.284" x="25.672" y="15.563" fill="#202020" fill-opacity="1" stroke="none" stroke-dasharray="none" stroke-linejoin="miter" stroke-miterlimit="4" stroke-opacity="1" stroke-width=".595" paint-order="markers stroke fill" rx="1.1" ry="1.1"/><rect id="rect840" width="9.458" height="9.369" x="25.672" y="28.376" fill="#202020" fill-opacity="1" stroke="none" stroke-dasharray="none" stroke-linejoin="miter" stroke-miterlimit="4" stroke-opacity="1" stroke-width=".595" paint-order="markers stroke fill" rx="1.1" ry="1.1"/><rect id="rect842" width="9.458" height="9.36" x="25.672" y="38.274" fill="#202020" fill-opacity="1" stroke="none" stroke-dasharray="none" stroke-linejoin="miter" stroke-miterlimit="4" stroke-opacity="1" stroke-width=".595" paint-order="markers stroke fill" rx="1.1" ry="1.1"/><rect id="rect844" width="9.458" height="16.354" x="66.426" y="16.893" fill="#202020" fill-opacity="1" stroke="none" stroke-dasharray="none" stroke-linejoin="miter" stroke-miterlimit="4" stroke-opacity="1" stroke-width=".595" paint-order="markers stroke fill" rx="1.1" ry="1.1"/><rect id="rect846" width="9.458" height="13.858" x="66.426" y="33.776" fill="#202020" fill-opacity="1" stroke="none" stroke-dasharray="none" stroke-linejoin="miter" stroke-miterlimit="4" stroke-opacity="1" stroke-width=".595" paint-order="markers stroke fill" rx="1.1" ry="1.1"/></g></g><g id="g887"><g id="g865" transform="translate(-45.256414,25.671447)"><rect id="rect850" width="70.807" height="39.843" x="92.615" y="9.097" fill="#fff" fill-opacity="1" stroke="#3c3c3c" stroke-dasharray="none" stroke-linejoin="miter" stroke-miterlimit="4" stroke-opacity="1" stroke-width=".595" paint-order="markers stroke fill"/><g id="g885" transform="translate(1.574656,1.8167496e-4)"><rect id="rect854" width="9.458" height="4.63" x="98.15" y="10.403" fill="#202020" fill-opacity="1" stroke="none" stroke-dasharray="none" stroke-linejoin="miter" stroke-miterlimit="4" stroke-opacity="1" stroke-width=".595" paint-order="markers stroke fill" rx="1.1" ry="1.1"/><rect id="rect856" width="11.253" height="37.231" x="108.137" y="10.403" fill="#202020" fill-opacity="1" stroke="none" stroke-dasharray="none" stroke-linejoin="miter" stroke-miterlimit="4" stroke-opacity="1" stroke-width=".595" paint-order="markers stroke fill" rx="1.1" ry="1.1"/><rect id="rect858" width="9.458" height="12.284" x="98.15" y="15.563" fill="#202020" fill-opacity="1" stroke="none" stroke-dasharray="none" stroke-linejoin="miter" stroke-miterlimit="4" stroke-opacity="1" stroke-width=".595" paint-order="markers stroke fill" rx="1.1" ry="1.1"/><rect id="rect860" width="9.458" height="9.369" x="98.15" y="28.376" fill="#202020" fill-opacity="1" stroke="none" stroke-dasharray="none" stroke-linejoin="miter" stroke-miterlimit="4" stroke-opacity="1" stroke-width=".595" paint-order="markers stroke fill" rx="1.1" ry="1.1"/><rect id="rect862" width="9.458" height="9.36" x="98.15" y="38.274" fill="#202020" fill-opacity="1" stroke="none" stroke-dasharray="none" stroke-linejoin="miter" stroke-miterlimit="4" stroke-opacity="1" stroke-width=".595" paint-order="markers stroke fill" rx="1.1" ry="1.1"/><rect id="rect868" width="11.253" height="37.231" x="119.92" y="10.403" fill="#202020" fill-opacity="1" stroke="none" stroke-dasharray="none" stroke-linejoin="miter" stroke-miterlimit="4" stroke-opacity="1" stroke-width=".595" paint-order="markers stroke fill" rx="1.1" ry="1.1"/><rect id="rect870" width="11.253" height="37.231" x="131.702" y="10.403" fill="#202020" fill-opacity="1" stroke="none" stroke-dasharray="none" stroke-linejoin="miter" stroke-miterlimit="4" stroke-opacity="1" stroke-width=".595" paint-order="markers stroke fill" rx="1.1" ry="1.1"/><rect id="rect872" width="11.253" height="18.35" x="143.485" y="29.284" fill="#202020" fill-opacity="1" stroke="none" stroke-dasharray="none" stroke-linejoin="miter" stroke-miterlimit="4" stroke-opacity="1" stroke-width=".595" paint-order="markers stroke fill" rx="1.1" ry="1.1"/><rect id="rect874" width="11.253" height="18.35" x="143.485" y="10.403" fill="#202020" fill-opacity="1" stroke="none" stroke-dasharray="none" stroke-linejoin="miter" stroke-miterlimit="4" stroke-opacity="1" stroke-width=".595" paint-order="markers stroke fill" rx="1.1" ry="1.1"/></g></g><text font-size="9.61" style="line-height:1.25;-inkscape-font-specification:'GenEi Nu Gothic EB';text-align:center" id="text869" x="81.668" y="58.756" fill="#202020" fill-opacity="1" stroke="#fff" stroke-dasharray="none" stroke-miterlimit="4" stroke-opacity="1" stroke-width="3.065" font-family="GenEi Nu Gothic EB" font-stretch="normal" font-style="normal" font-variant="normal" font-weight="normal" letter-spacing="0" paint-order="markers stroke fill" text-anchor="middle" transform="scale(1.0092223,0.99086198)" word-spacing="0" xml:space="preserve"><tspan id="tspan867" x="81.668" y="58.756" fill="#202020" fill-opacity="1" stroke="#fff" stroke-dasharray="none" stroke-miterlimit="4" stroke-opacity="1" stroke-width="3.065" font-family="GenEi Nu Gothic EB" font-stretch="normal" font-style="normal" font-variant="normal" font-weight="normal" paint-order="markers stroke fill" style="-inkscape-font-specification:'GenEi Nu Gothic EB'">Deck</tspan></text></g></g></g></svg>